<?xml version="1.0" encoding="UTF-8" standalone="no"?>
<svg
   id="Assets"
   viewBox="0 0 512 512"
   version="1.1"
   sodipodi:docname="firefox-symbolic.svg"
   inkscape:version="1.1.2 (b8e25be833, 2022-02-05)"
   xmlns:inkscape="http://www.inkscape.org/namespaces/inkscape"
   xmlns:sodipodi="http://sodipodi.sourceforge.net/DTD/sodipodi-0.dtd"
   xmlns="http://www.w3.org/2000/svg"
   xmlns:svg="http://www.w3.org/2000/svg">
  <defs
     id="defs7" />
  <sodipodi:namedview
     id="namedview5"
     pagecolor="#000000"
     bordercolor="#666666"
     borderopacity="1.0"
     inkscape:pageshadow="2"
     inkscape:pageopacity="0"
     inkscape:pagecheckerboard="0"
     showgrid="false"
     inkscape:zoom="0.63085938"
     inkscape:cx="134.73684"
     inkscape:cy="416.89164"
     inkscape:window-width="1842"
     inkscape:window-height="1057"
     inkscape:window-x="70"
     inkscape:window-y="-8"
     inkscape:window-maximized="1"
     inkscape:current-layer="Assets" />
  <path
     d="m 501.44528,197.4973 c -2.43776,6.0944 -4.35314,12.36292 -6.7909,18.45732 -1.74126,-25.59648 -5.92028,-51.01883 -14.10418,-75.2223 -5.57203,-14.97481 -12.01468,-29.94962 -23.15872,-41.616039 1.56713,14.278299 5.22377,28.208359 4.87552,42.660789 -3.13427,-10.96992 -6.79091,-22.11396 -13.40768,-31.51675 C 434.58101,88.146362 411.42229,73.171552 386.69644,65.161769 380.25379,63.072261 373.46289,61.853381 367.71674,58.370867 332.1951,37.649909 290.75318,27.376492 249.65952,28.421247 196.20293,29.117749 143.61697,50.186959 104.43868,86.405105 98.34428,92.151253 92.772258,98.419778 86.677858,104.34005 76.056191,91.977127 70.658294,76.305814 69.961791,60.112124 60.384878,68.296032 54.812855,80.13658 50.807964,91.803002 c -5.572022,16.367808 -8.532159,33.780378 -6.790902,51.018828 0.174125,3.83076 1.21888,8.00978 -1.393006,11.31817 -13.581804,19.85033 -24.551724,42.48667 -27.163609,66.69014 4.353142,-2.96014 8.532159,-6.0944 12.885302,-9.05453 -1.741257,8.70628 -4.179017,17.41257 -5.572023,26.29298 -6.094399,42.66079 1.741257,87.06285 22.113964,125.19637 22.28809,41.09367 56.76498,75.04818 97.33627,98.2069 45.62093,25.94473 100.12228,35.52164 152.01174,27.16361 45.27268,-7.48741 89.15235,-27.33774 121.53974,-60.24749 22.98459,-23.33285 43.00904,-49.62583 57.46148,-79.05307 23.68109,-46.66569 33.60626,-100.12228 28.20836,-151.83761 m -84.79922,66.86427 c -4.70139,-9.57692 -7.13915,-20.89509 -16.19369,-27.51186 2.26364,24.02934 3.30839,48.40694 -2.0895,72.08804 -3.30839,16.01956 -10.44755,31.51675 -22.11397,43.18317 2.08951,-11.4923 4.00489,-23.15872 3.30839,-34.82514 -16.89019,22.81047 -37.2629,43.87968 -63.20763,56.2426 -21.93984,10.62167 -47.88457,10.09929 -70.86916,2.96014 -20.89508,-6.7909 -39.00416,-19.67621 -55.02372,-34.30277 h 5.57202 c 15.67131,1.04476 31.51675,-1.21888 46.49156,-5.57202 14.97481,-4.35314 26.11886,-15.49719 39.17829,-23.33284 6.0944,-3.65664 13.75593,-2.08951 20.3727,-4.00489 4.17902,-2.26364 5.57203,-8.35804 1.74126,-11.66642 -9.75104,-10.62167 -23.85522,-19.15383 -38.65591,-17.41257 -14.2783,2.0895 -25.94473,11.84054 -40.04891,15.14893 -10.09929,1.74126 -20.3727,-1.393 -29.25311,-5.92027 -12.71118,-6.44265 -22.28809,-17.23845 -31.34263,-27.86011 l -4.00489,-3.30839 c 0,-1.56713 0,-3.30839 0.17412,-4.87552 0.87063,-4.35315 3.30839,-8.18391 5.3979,-12.1888 l 2.43776,-4.87552 c 14.10418,1.04475 28.03424,3.30839 41.79017,6.7909 -0.17413,-13.05943 -1.04476,-27.86011 -9.05454,-38.6559 l 2.78601,-2.08951 c 8.88041,-6.96503 17.06432,-15.14894 26.98949,-20.54684 4.00489,-2.0895 7.66153,-4.87551 10.62166,-8.1839 l 0.69651,-5.92028 h -0.17413 c 0.17413,-2.26363 -0.17412,-4.70139 -0.17412,-6.96503 -4.87552,-0.52237 -9.75104,-0.87062 -14.80069,-0.87062 l -13.5818,-0.87063 c -1.04476,-0.6965 -2.08951,-1.39301 -3.13427,-1.91538 -9.22866,-5.74615 -17.23844,-13.40768 -25.94473,-19.85033 l -3.48251,-3.13427 0.52238,-4.70139 c 3.30839,-21.76571 19.32795,-38.830028 36.04402,-51.889456 -11.84055,1.741257 -23.50697,5.049645 -34.12864,10.447542 -11.14404,5.397897 -20.72096,13.581804 -30.12375,21.591584 -18.9797,-4.87552 -39.3524,-1.91538 -57.46148,5.04964 -8.88041,4.0049 -16.890192,9.92517 -25.596477,14.45244 5.572022,-5.57203 12.014673,-9.92517 18.283198,-14.80069 5.572022,-4.17901 9.751039,-9.92516 14.626559,-14.800678 36.21815,-37.2629 86.88873,-59.725115 138.60406,-62.337 34.30276,-1.741257 69.65028,3.656639 100.64466,18.805575 -8.35804,-0.348251 -16.54195,-0.870628 -24.89998,-0.696503 18.63145,5.572023 40.39716,11.492297 50.8447,29.60137 -9.57691,0.348251 -19.32795,0.522377 -28.55661,3.656639 26.64123,10.273417 53.45659,22.984587 73.30692,44.227927 11.84055,12.71117 20.02446,29.25311 19.6762,47.01394 -6.26852,-4.7014 -12.71117,-9.05454 -19.6762,-12.53705 7.4874,31.51675 12.1888,65.12301 3.48251,97.16214"
     id="path2-0"
     style="display:inline;fill:#ffffff;stroke-width:1.74126" />
</svg>
